<svg width="96" height="96" viewBox="0 0 96 96" fill="none" xmlns="http://www.w3.org/2000/svg">
<path d="M0 48C0 21.4903 21.4903 0 48 0C74.5097 0 96 21.4903 96 48C96 74.5097 74.5097 96 48 96C21.4903 96 0 74.5097 0 48Z" fill="#F5F6F9"/>
<path d="M70.4837 61.6969H27.3928C26.8474 61.6969 26.3019 61.1515 26.3019 60.606V30.4242C26.3019 29.8788 26.8474 29.3333 27.3928 29.3333H70.4837C71.0292 29.3333 71.5746 29.8788 71.5746 30.4242V55.3333C71.5746 55.8788 71.0292 56.4242 70.4837 56.4242C69.9383 56.4242 69.3928 55.8788 69.3928 55.3333V31.5151H28.3019V59.5151H70.3019C70.8474 59.5151 71.3928 60.0606 71.3928 60.606C71.3928 61.1515 71.0292 61.6969 70.4837 61.6969Z" fill="black"/>
<path d="M76.3019 61.6969H22.4837C21.9383 61.6969 21.3928 61.1515 21.3928 60.606C21.3928 60.0606 21.9383 59.5151 22.4837 59.5151H76.3019C76.8474 59.5151 77.3928 60.0606 77.3928 60.606C77.3928 61.1515 76.8474 61.6969 76.3019 61.6969Z" fill="black"/>
<path d="M47.211 38.7879H33.5747C33.0292 38.7879 32.4837 38.2424 32.4837 37.6969C32.4837 37.1515 33.0292 36.606 33.5747 36.606H47.211C47.7565 36.606 48.3019 37.1515 48.3019 37.6969C48.3019 38.2424 47.7565 38.7879 47.211 38.7879Z" fill="black"/>
<path d="M47.211 43.5151H33.5747C33.0292 43.5151 32.4837 42.9697 32.4837 42.4242C32.4837 41.8788 33.0292 41.3333 33.5747 41.3333H47.211C47.7565 41.3333 48.3019 41.8788 48.3019 42.4242C48.3019 42.9697 47.7565 43.5151 47.211 43.5151Z" fill="black"/>
<path d="M60.8474 55.697H56.4837C53.5746 55.697 51.211 53.3333 51.211 50.4242V48.0606C51.211 45.1515 53.5746 42.7878 56.4837 42.7878H60.8474C63.7565 42.7878 66.1201 45.1515 66.1201 48.0606V50.4242C66.1201 53.3333 63.7565 55.697 60.8474 55.697ZM56.4837 44.9697C54.6656 44.9697 53.3928 46.4242 53.3928 48.0606V50.4242C53.3928 52.2424 54.8474 53.5151 56.4837 53.5151H60.8474C62.6656 53.5151 63.9383 52.0606 63.9383 50.4242V48.0606C63.9383 46.2424 62.4837 44.9697 60.8474 44.9697H56.4837Z" fill="black"/>
</svg>
