<svg width="96" height="96" viewBox="0 0 96 96" fill="none" xmlns="http://www.w3.org/2000/svg">
<path d="M0 48C0 21.4903 21.4903 0 48 0C74.5097 0 96 21.4903 96 48C96 74.5097 74.5097 96 48 96C21.4903 96 0 74.5097 0 48Z" fill="#F5F6F9"/>
<path d="M59.9641 64.6641C59.763 64.6641 59.3609 64.4631 59.1598 64.262C58.7576 63.8598 58.7576 63.0555 59.1598 62.6534L69.2137 52.5995C74.8438 46.9694 74.8438 37.7198 69.2137 32.0897C63.5835 26.4595 54.334 26.4595 48.7038 32.0897L41.2639 39.5295C40.8618 39.9317 40.0575 39.9317 39.6553 39.5295C39.2532 39.1273 39.2532 38.323 39.6553 37.9209L47.0952 30.481C53.7307 23.8455 64.3878 23.8455 71.0233 30.481C77.6589 37.1166 77.6589 47.7737 71.0233 54.4092L60.9695 64.4631C60.5673 64.6641 60.1652 64.6641 59.9641 64.6641Z" fill="#292E32"/>
<path d="M52.5242 70.6965C51.3178 70.6965 50.3124 70.2943 49.307 69.49C47.4973 67.6803 47.4973 64.8653 49.307 63.2566L58.5565 54.0071C58.9587 53.6049 59.763 53.6049 60.1652 54.0071C60.5673 54.4092 60.5673 55.2135 60.1652 55.6157L50.9156 64.8653C50.1113 65.6696 50.1113 67.0771 50.9156 67.8814C51.7199 68.6857 53.1275 68.6857 53.9318 67.8814L67.8061 54.0071C68.2083 53.6049 69.0126 53.6049 69.4147 54.0071C69.8169 54.4092 69.8169 55.2135 69.4147 55.6157L55.5404 69.49C54.7361 70.2943 53.7307 70.6965 52.5242 70.6965Z" fill="#292E32"/>
<path d="M34.6284 62.0502C33.4219 62.0502 32.4165 61.648 31.6122 60.8437C30.8079 60.0394 30.4057 59.034 30.4057 57.8276C30.4057 56.6211 30.8079 55.6157 31.6122 54.8114L47.4973 38.7252C47.8995 38.3231 48.5027 38.3231 48.9048 38.5241C49.1059 38.5241 52.1221 40.5349 55.1382 37.7198C55.5404 37.3177 56.3447 37.3177 56.7469 37.7198C57.149 38.122 57.149 38.9263 56.7469 39.3284C53.9318 42.1435 50.5135 41.7414 48.5027 40.9371L33.0198 56.42C32.6176 56.8221 32.4165 57.2243 32.4165 57.8276C32.4165 58.4308 32.6176 58.8329 33.0198 59.2351C33.8241 60.0394 35.0305 60.0394 35.8348 59.2351L43.8779 51.192C44.2801 50.7899 45.0844 50.7899 45.4865 51.192C45.8887 51.5942 45.8887 52.3985 45.4865 52.8006L37.4434 60.8437C36.8402 61.4469 35.6338 62.0502 34.6284 62.0502Z" fill="#292E32"/>
<path d="M38.851 66.2728C37.8456 66.2728 36.6391 65.8706 35.8348 65.0663C35.0305 64.262 34.6284 63.2566 34.6284 62.0502C34.6284 60.8437 35.0305 59.8383 35.8348 59.034L49.7092 45.1597C50.1113 44.7575 50.9156 44.7575 51.3178 45.1597C51.7199 45.5618 51.7199 46.3662 51.3178 46.7683L37.4434 60.6426C37.0413 61.0448 36.8402 61.4469 36.8402 62.0502C36.8402 62.4523 37.0413 63.0555 37.4434 63.4577C38.2478 64.262 39.4542 64.262 40.0575 63.4577L43.8779 59.6372C44.2801 59.2351 45.0844 59.2351 45.4865 59.6372C45.8887 60.0394 45.8887 60.8437 45.4865 61.2459L41.6661 65.0663C40.8618 65.8706 39.8564 66.2728 38.851 66.2728Z" fill="#292E32"/>
<path d="M43.4758 70.4954C42.4704 70.4954 41.2639 70.0933 40.4596 69.289C39.6553 68.4846 39.2532 67.4793 39.2532 66.2728C39.2532 65.0663 39.6553 64.0609 40.4596 63.2566L54.1329 49.5834C54.535 49.1812 55.3393 49.1812 55.7415 49.5834C56.1436 49.9855 56.1436 50.7899 55.7415 51.192L42.0682 64.8653C41.6661 65.2674 41.465 65.6696 41.465 66.2728C41.465 66.876 41.6661 67.2782 42.0682 67.6803C42.8725 68.4846 44.079 68.4846 44.8833 67.6803L57.9533 54.6103C58.3555 54.2082 59.1598 54.2082 59.5619 54.6103C59.9641 55.0125 59.9641 55.8168 59.5619 56.2189L46.4919 69.289C45.6876 70.0933 44.4811 70.4954 43.4758 70.4954Z" fill="#292E32"/>
<path d="M32.2154 61.0448C32.0144 61.0448 31.6122 60.8437 31.4111 60.6426L24.9767 54.2081C18.3411 47.5726 18.3411 36.9155 24.9767 30.2799C29.8025 25.4541 36.8402 24.0466 43.0736 26.4595C43.6768 26.6606 43.8779 27.2638 43.6768 27.867C43.4758 28.4703 42.8725 28.6713 42.2693 28.4703C36.8402 26.2584 30.8079 27.666 26.5853 31.6875C20.9551 37.3177 20.9551 46.5672 26.5853 52.1974L33.0197 58.6318C33.4219 59.034 33.4219 59.8383 33.0197 60.2405C32.8187 61.0448 32.6176 61.0448 32.2154 61.0448Z" fill="#292E32"/>
</svg>
