<svg width="96" height="96" viewBox="0 0 96 96" fill="none" xmlns="http://www.w3.org/2000/svg">
<path d="M0 48C0 21.4903 21.4903 0 48 0C74.5097 0 96 21.4903 96 48C96 74.5097 74.5097 96 48 96C21.4903 96 0 74.5097 0 48Z" fill="#F5F6F9"/>
<path d="M27.4196 60.3478C27.0718 60.1739 26.8979 59.8261 26.8979 59.4783V56.1739C24.8109 54.2609 23.5935 51.8261 23.5935 49.0435C23.5935 43.3043 28.9848 38.7826 35.5935 38.7826C42.2022 38.7826 47.5935 43.4783 47.5935 49.0435C47.5935 54.7826 42.2022 59.3044 35.5935 59.3044C34.2022 59.3044 32.9848 59.1304 31.5935 58.7826C30.7147 59.0337 27.854 60.7823 27.4196 60.3478ZM35.7674 40.8696C30.2022 40.8696 25.6805 44.6957 25.6805 49.2174C25.6805 51.4783 26.7239 53.5652 28.637 55.1304C28.8109 55.3043 28.9848 55.6522 28.9848 55.8261V58.087L31.4196 57.0435C31.5935 57.0435 31.9413 56.8696 32.1152 57.0435H32.2892C33.5065 57.3913 34.55 57.5652 35.7674 57.5652C41.3326 57.5652 45.8544 53.7391 45.8544 49.2174C45.8544 44.6957 41.3326 40.8696 35.7674 40.8696Z" fill="black"/>
<path d="M58.0306 76H37.6104C34.6538 76 32.393 73.5652 32.393 70.7826V64.6956C32.393 64.1739 32.9147 63.6522 33.4364 63.6522C33.9582 63.6522 34.4799 64.1739 34.4799 64.6956V70.7826C34.4799 72.5217 35.8712 74.0869 37.7843 74.0869H58.2046C59.9437 74.0869 61.5089 72.6956 61.5089 70.7826V48V25.2174C61.5089 23.4783 60.1176 21.913 58.2046 21.913H37.6104C35.8712 21.913 34.306 23.3043 34.306 25.2174V39.8261C34.306 40.3478 33.7843 40.8696 33.2625 40.8696C32.7408 40.8696 32.2191 40.3478 32.2191 39.8261V25.2174C32.2191 22.2609 34.6538 20 37.4364 20H57.8567C60.8133 20 63.0741 22.4348 63.0741 25.2174V70.6087C63.248 73.5652 60.8133 76 58.0306 76Z" fill="black"/>
<path d="M61.6826 26.6087H33.9579C33.4362 26.6087 32.9145 26.0869 32.9145 25.5652C32.9145 25.0434 33.4362 24.5217 33.9579 24.5217H61.6826C62.2043 24.5217 62.726 25.0434 62.726 25.5652C62.726 26.0869 62.2043 26.6087 61.6826 26.6087Z" fill="black"/>
<path d="M50.2044 70.0869H45.7841C45.2624 70.0869 44.7406 69.5652 44.7406 69.0434C44.7406 68.5217 45.2624 68 45.7841 68H50.2044C50.7261 68 51.2479 68.5217 51.2479 69.0434C51.2479 69.5652 50.7261 70.0869 50.2044 70.0869Z" fill="black"/>
</svg>
